<svg xmlns="http://www.w3.org/2000/svg" viewBox="0 0 1100 735" font-family="'Segoe UI', Arial, sans-serif">

  <!-- Background -->
  <rect width="1100" height="735" fill="#f1f5f9" rx="12"/>
  <text x="550" y="34" text-anchor="middle" font-size="20" font-weight="bold" fill="#1e293b">Infrastructure DGSI Epitech — Plan Réseau</text>

  <!-- ═══════════════════ PVE1 — On-Premise ═══════════════════ -->
  <rect x="30" y="55" width="505" height="470" rx="12" fill="#fdf6e8" stroke="#e8a33d" stroke-width="2"/>
  <text x="282" y="78" text-anchor="middle" font-size="13" font-weight="bold" fill="#92400e">PVE1 — On-Premise  (ns3050272.ip-51-255-76.eu)</text>

  <!-- pfSense-OP -->
  <rect x="50" y="95" width="465" height="90" rx="8" fill="#ffffff" stroke="#e2e8f0" stroke-width="1.5"/>
  <text x="70" y="118" font-size="12" font-weight="bold" fill="#475569">🛡️ pfSense-OP — VMID 125</text>
  <rect x="70" y="130" width="210" height="42" rx="6" fill="#f1f5f9" stroke="#cbd5e1" stroke-width="1"/>
  <text x="175" y="145" text-anchor="middle" font-size="11" font-weight="bold" fill="#475569">WAN</text>
  <text x="175" y="161" text-anchor="middle" font-size="11" fill="#475569">5.196.45.8</text>
  <rect x="290" y="130" width="205" height="42" rx="6" fill="#f1f5f9" stroke="#cbd5e1" stroke-width="1"/>
  <text x="393" y="145" text-anchor="middle" font-size="11" font-weight="bold" fill="#475569">LAN</text>
  <text x="393" y="161" text-anchor="middle" font-size="11" fill="#475569">172.16.0.240/28</text>

  <!-- ops-vm -->
  <rect x="50" y="200" width="465" height="210" rx="8" fill="#ffffff" stroke="#e2e8f0" stroke-width="1.5"/>
  <text x="70" y="223" font-size="12" font-weight="bold" fill="#1e3a8a">🖥️ ops-vm — VMID 2038 — 172.16.0.253</text>

  <rect x="70" y="235" width="215" height="70" rx="6" fill="#eff6ff" stroke="#bfdbfe" stroke-width="1"/>
  <text x="178" y="255" text-anchor="middle" font-size="11" font-weight="bold" fill="#1e3a8a">🔍 Elasticsearch</text>
  <text x="178" y="271" text-anchor="middle" font-size="10" fill="#1e3a8a">:9200 HTTPS · :9300 cluster</text>
  <text x="178" y="287" text-anchor="middle" font-size="10" fill="#ca8a04">● healthy (yellow)</text>

  <rect x="295" y="235" width="220" height="70" rx="6" fill="#f5f3ff" stroke="#ddd6fe" stroke-width="1"/>
  <text x="405" y="255" text-anchor="middle" font-size="11" font-weight="bold" fill="#5b21b6">🔐 Vault</text>
  <text x="405" y="271" text-anchor="middle" font-size="10" fill="#5b21b6">:8200 HTTPS</text>
  <text x="405" y="287" text-anchor="middle" font-size="10" fill="#16a34a">● initialized, unsealed</text>

  <rect x="70" y="315" width="445" height="70" rx="6" fill="#f0fdf4" stroke="#bbf7d0" stroke-width="1"/>
  <text x="292" y="343" text-anchor="middle" font-size="11" font-weight="bold" fill="#166534">📦 Filebeat</text>
  <text x="292" y="361" text-anchor="middle" font-size="10" fill="#166534">Agent de collecte → Elasticsearch HTTPS :9200</text>

  <!-- services-vm (hors ligne) -->
  <rect x="50" y="425" width="465" height="70" rx="8" fill="#fef2f2" stroke="#fca5a5" stroke-width="1.5" stroke-dasharray="6,3"/>
  <text x="70" y="447" font-size="12" font-weight="bold" fill="#b91c1c">⚠️ services-vm — VMID 3038 — HORS LIGNE</text>
  <text x="70" y="465" font-size="11" fill="#b91c1c">172.16.0.241 — inaccessible (réseau KO sur PVE1)</text>
  <text x="70" y="481" font-size="10" fill="#b91c1c">Netbox bloqué (PR #72) — en attente</text>

  <!-- ═══════════════════ PVE2 — Cloud ═══════════════════ -->
  <rect x="565" y="55" width="505" height="470" rx="12" fill="#eff6ff" stroke="#93c5fd" stroke-width="2"/>
  <text x="817" y="78" text-anchor="middle" font-size="13" font-weight="bold" fill="#1d4ed8">PVE2 — Cloud  (ns3183326.ip-146-59-253.eu)</text>

  <!-- pfSense-Cloud -->
  <rect x="585" y="95" width="465" height="110" rx="8" fill="#ffffff" stroke="#e2e8f0" stroke-width="1.5"/>
  <text x="605" y="118" font-size="12" font-weight="bold" fill="#475569">🛡️ pfSense-Cloud — VMID 106</text>
  <rect x="605" y="130" width="135" height="66" rx="6" fill="#f1f5f9" stroke="#cbd5e1" stroke-width="1"/>
  <text x="672" y="148" text-anchor="middle" font-size="11" font-weight="bold" fill="#475569">WAN</text>
  <text x="672" y="164" text-anchor="middle" font-size="10" fill="#475569">5.196.50.52</text>
  <text x="672" y="180" text-anchor="middle" font-size="9" fill="#64748b">SSH :22 direct</text>
  <rect x="750" y="130" width="135" height="66" rx="6" fill="#f1f5f9" stroke="#cbd5e1" stroke-width="1"/>
  <text x="817" y="148" text-anchor="middle" font-size="11" font-weight="bold" fill="#475569">DMZ</text>
  <text x="817" y="164" text-anchor="middle" font-size="10" fill="#475569">10.255.255.248/29</text>
  <text x="817" y="180" text-anchor="middle" font-size="9" fill="#64748b">bastion :5601</text>
  <rect x="895" y="130" width="135" height="66" rx="6" fill="#f1f5f9" stroke="#cbd5e1" stroke-width="1"/>
  <text x="962" y="148" text-anchor="middle" font-size="11" font-weight="bold" fill="#475569">LAN</text>
  <text x="962" y="164" text-anchor="middle" font-size="10" fill="#475569">192.168.255.240/28</text>
  <text x="962" y="180" text-anchor="middle" font-size="9" fill="#64748b">web :80/:443</text>

  <!-- bastion -->
  <rect x="585" y="215" width="465" height="210" rx="8" fill="#ffffff" stroke="#e2e8f0" stroke-width="1.5"/>
  <text x="605" y="238" font-size="12" font-weight="bold" fill="#1e3a8a">🖥️ bastion — VMID 2038 — 10.255.255.253 (DMZ)</text>

  <rect x="605" y="250" width="215" height="70" rx="6" fill="#eff6ff" stroke="#bfdbfe" stroke-width="1"/>
  <text x="713" y="270" text-anchor="middle" font-size="11" font-weight="bold" fill="#1e3a8a">📊 Kibana</text>
  <text x="713" y="286" text-anchor="middle" font-size="10" fill="#1e3a8a">:5601 HTTPS → ES (ops-vm, VPN)</text>

  <rect x="830" y="250" width="220" height="70" rx="6" fill="#f5f3ff" stroke="#ddd6fe" stroke-width="1"/>
  <text x="940" y="270" text-anchor="middle" font-size="11" font-weight="bold" fill="#5b21b6">🔐 Teleport</text>
  <text x="940" y="286" text-anchor="middle" font-size="10" fill="#5b21b6">SSH sécurisé / Proxy / RBAC · :3023 / :3080</text>

  <rect x="605" y="330" width="445" height="70" rx="6" fill="#f0fdf4" stroke="#bbf7d0" stroke-width="1"/>
  <text x="827" y="358" text-anchor="middle" font-size="11" font-weight="bold" fill="#166534">📦 Filebeat</text>
  <text x="827" y="376" text-anchor="middle" font-size="10" fill="#166534">→ Elasticsearch HTTPS :9200 (via VPN)</text>

  <!-- web -->
  <rect x="585" y="435" width="465" height="70" rx="8" fill="#ffffff" stroke="#e2e8f0" stroke-width="1.5"/>
  <text x="605" y="460" font-size="12" font-weight="bold" fill="#166534">🌍 web — VMID 3038 — 192.168.255.253 (LAN)</text>
  <text x="605" y="481" font-size="11" fill="#15803d">Site web :80/:443 — Docker non installé</text>

  <!-- ═══════════════════ VPN inter-sites ═══════════════════ -->
  <rect x="495" y="263" width="110" height="54" rx="6" fill="#fff7ed" stroke="#ea580c" stroke-width="1.5"/>
  <text x="550" y="285" text-anchor="middle" font-size="10" font-weight="bold" fill="#c2410c">🔗 OpenVPN</text>
  <text x="550" y="301" text-anchor="middle" font-size="9" fill="#c2410c">10.3.3.0/29</text>
  <line x1="495" y1="290" x2="450" y2="290" stroke="#ea580c" stroke-width="2" stroke-dasharray="5,3" marker-end="url(#arrow_orange)"/>
  <line x1="605" y1="290" x2="650" y2="290" stroke="#ea580c" stroke-width="2" stroke-dasharray="5,3" marker-end="url(#arrow_orange)"/>

  <!-- Flux Filebeat ops-vm → ES (local) -->
  <line x1="178" y1="315" x2="178" y2="305" stroke="#16a34a" stroke-width="1.5" marker-end="url(#arrow_green)"/>

  <!-- ═══════════════════ Accès opérateur (SSH tunnels) ═══════════════════ -->
  <rect x="30" y="545" width="340" height="150" rx="10" fill="#f0fdfa" stroke="#0d9488" stroke-width="2"/>
  <text x="50" y="568" font-size="12" font-weight="bold" fill="#0f766e">🔒 Accès Opérateur (SSH Tunnels)</text>
  <text x="50" y="589" font-size="10" font-weight="bold" fill="#0f766e">PVE1 (via pfSense-OP 5.196.45.8) :</text>
  <text x="50" y="604" font-size="10" font-family="monospace" fill="#0f766e">ssh -fNL 9200:172.16.0.253:9200 \</text>
  <text x="50" y="617" font-size="10" font-family="monospace" fill="#0f766e">     -L 8200:172.16.0.253:8200 \</text>
  <text x="50" y="630" font-size="10" font-family="monospace" fill="#0f766e">  -J admin@5.196.45.8 dgsi-op@…</text>
  <text x="50" y="651" font-size="10" font-weight="bold" fill="#0f766e">PVE2 (via pfSense-Cloud 5.196.50.52) :</text>
  <text x="50" y="666" font-size="10" font-family="monospace" fill="#0f766e">ssh -fNL 5601:10.255.255.253:5601 \</text>
  <text x="50" y="679" font-size="10" font-family="monospace" fill="#0f766e">  -J admin@5.196.50.52 dgsi-cloud@…</text>

  <!-- ═══════════════════ PKI ═══════════════════ -->
  <rect x="390" y="545" width="320" height="150" rx="10" fill="#f5f3ff" stroke="#7c3aed" stroke-width="2"/>
  <text x="550" y="572" text-anchor="middle" font-size="12" font-weight="bold" fill="#5b21b6">🔑 PKI — DGSI Internal CA</text>
  <text x="550" y="608" text-anchor="middle" font-size="11" fill="#5b21b6">~/.ansible-tls/ca.crt (controller Ansible)</text>
  <text x="550" y="635" text-anchor="middle" font-size="11" fill="#5b21b6">Signe : Elasticsearch • Vault • Kibana</text>
  <text x="550" y="662" text-anchor="middle" font-size="11" fill="#5b21b6">Déployé dans /etc/ssl/internal/ sur chaque VM</text>

  <!-- ═══════════════════ Légende ═══════════════════ -->
  <rect x="730" y="545" width="340" height="150" rx="10" fill="#ffffff" stroke="#cbd5e1" stroke-width="1.5"/>
  <text x="900" y="568" text-anchor="middle" font-size="12" font-weight="bold" fill="#334155">Légende</text>
  <rect x="750" y="581" width="18" height="11" rx="2" fill="#fdf6e8" stroke="#e8a33d" stroke-width="1.5"/>
  <text x="775" y="590" font-size="10" fill="#334155">PVE1 — On-Premise</text>
  <rect x="750" y="604" width="18" height="11" rx="2" fill="#eff6ff" stroke="#93c5fd" stroke-width="1.5"/>
  <text x="775" y="613" font-size="10" fill="#334155">PVE2 — Cloud</text>
  <rect x="750" y="627" width="18" height="11" rx="2" fill="#eff6ff" stroke="#bfdbfe" stroke-width="1"/>
  <text x="775" y="636" font-size="10" fill="#334155">Service actif</text>
  <rect x="750" y="650" width="18" height="11" rx="2" fill="#fef2f2" stroke="#fca5a5" stroke-width="1" stroke-dasharray="3,2"/>
  <text x="775" y="659" font-size="10" fill="#334155">Service hors ligne</text>
  <line x1="750" y1="676" x2="768" y2="676" stroke="#ea580c" stroke-width="2.5" stroke-dasharray="5,3"/>
  <text x="775" y="679" font-size="10" fill="#334155">Tunnel VPN inter-sites</text>

  <defs>
    <marker id="arrow_green" markerWidth="8" markerHeight="8" refX="4" refY="4" orient="auto">
      <path d="M0,0 L0,8 L8,4 z" fill="#16a34a"/>
    </marker>
    <marker id="arrow_orange" markerWidth="8" markerHeight="8" refX="4" refY="4" orient="auto">
      <path d="M0,0 L0,8 L8,4 z" fill="#ea580c"/>
    </marker>
  </defs>

  <!-- Date -->
  <text x="1070" y="722" text-anchor="end" font-size="9" fill="#94a3b8">DGSI Epitech — 2026-06-15</text>
</svg>
