<svg xmlns="http://www.w3.org/2000/svg" viewBox="0 0 1410 940" font-family="'Segoe UI', Arial, sans-serif">
  <defs>
    <marker id="av" markerWidth="8" markerHeight="8" refX="4" refY="4" orient="auto"><path d="M0,0 L0,8 L8,4 z" fill="#ea580c"/></marker>
    <marker id="ab" markerWidth="8" markerHeight="8" refX="4" refY="4" orient="auto"><path d="M0,0 L0,8 L8,4 z" fill="#1d4ed8"/></marker>
    <marker id="ag" markerWidth="8" markerHeight="8" refX="4" refY="4" orient="auto"><path d="M0,0 L0,8 L8,4 z" fill="#16a34a"/></marker>
    <marker id="ao" markerWidth="8" markerHeight="8" refX="4" refY="4" orient="auto"><path d="M0,0 L0,8 L8,4 z" fill="#c2410c"/></marker>
    <marker id="ap" markerWidth="8" markerHeight="8" refX="4" refY="4" orient="auto"><path d="M0,0 L0,8 L8,4 z" fill="#7c3aed"/></marker>
    <marker id="at" markerWidth="8" markerHeight="8" refX="4" refY="4" orient="auto"><path d="M0,0 L0,8 L8,4 z" fill="#0891b2"/></marker>
    <marker id="ai" markerWidth="8" markerHeight="8" refX="4" refY="4" orient="auto"><path d="M0,0 L0,8 L8,4 z" fill="#6366f1"/></marker>
  </defs>

  <!-- Background -->
  <rect width="1410" height="940" fill="#f8fafc" rx="10"/>
  <text x="705" y="28" text-anchor="middle" font-size="18" font-weight="bold" fill="#1e293b">Infrastructure DGSI Epitech — Architecture Réseau</text>
  <text x="705" y="44" text-anchor="middle" font-size="10" fill="#94a3b8">PVE1 · 51.75.128.134  ×  PVE2 · 192.99.62.116  ·  OpenVPN S2S UDP/1194  ·  VPN Nomade UDP/1195  ·  TLS interne partout</text>

  <!-- ════════════════════════════════
       ZONE INTERNET — bande du haut
  ════════════════════════════════ -->
  <rect x="175" y="52" width="1060" height="120" rx="10" fill="#eef2ff" stroke="#6366f1" stroke-width="2"/>
  <rect x="175" y="52" width="1060" height="28" rx="10" fill="#6366f1"/>
  <rect x="175" y="66" width="1060" height="14" fill="#6366f1"/>
  <text x="705" y="66" text-anchor="middle" font-size="11" font-weight="bold" fill="white">INTERNET — Accès externe</text>

  <!-- Admin card (left) -->
  <rect x="185" y="82" width="455" height="84" rx="7" fill="white" stroke="#e2e8f0" stroke-width="1.5"/>
  <rect x="185" y="82" width="5" height="84" rx="3" fill="#0891b2"/>
  <text x="202" y="99" font-size="10.5" font-weight="bold" fill="#164e63">🧑‍💻 Admin SSH</text>
  <line x1="192" y1="105" x2="633" y2="105" stroke="#e2e8f0" stroke-width="1"/>
  <text x="202" y="119" font-size="9" font-weight="600" fill="#155e75">On-prem (PVE1) :</text>
  <text x="202" y="131" font-size="9" fill="#155e75">SSH → 51.75.128.134  ·  ProxyJump → VMs / pfSense-OP</text>
  <line x1="192" y1="139" x2="633" y2="139" stroke="#e2e8f0" stroke-width="1"/>
  <text x="202" y="153" font-size="9" font-weight="600" fill="#155e75">Cloud (PVE2) :</text>
  <text x="202" y="163" font-size="9" fill="#155e75">SSH → 192.99.62.116  ·  ProxyJump → bastion / web  ·  pfSense-Cloud :2222</text>

  <!-- Client VPN card (right) -->
  <rect x="655" y="82" width="570" height="84" rx="7" fill="white" stroke="#e2e8f0" stroke-width="1.5"/>
  <rect x="655" y="82" width="5" height="84" rx="3" fill="#6366f1"/>
  <text x="672" y="99" font-size="10.5" font-weight="bold" fill="#312e81">💻 Client VPN (nomade)</text>
  <line x1="663" y1="105" x2="1218" y2="105" stroke="#e2e8f0" stroke-width="1"/>
  <text x="672" y="119" font-size="9" fill="#4338ca">OpenVPN client → pfSense-Cloud  ·  UDP/:1195  ·  TLS + auth utilisateur</text>
  <line x1="663" y1="128" x2="1218" y2="128" stroke="#e2e8f0" stroke-width="1"/>
  <text x="672" y="142" font-size="9" fill="#6b7280">Après connexion :  accès PVE2 · LAN Cloud · DMZ · inter-sites via tunnel S2S</text>
  <text x="672" y="155" font-size="9" fill="#6b7280">Serveur : openvpn-nomade (vpnid=2)  ·  WAN 192.99.62.116</text>

  <!-- ════════════════════════════════
       FLÈCHES INTERNET → SITES (descendent)
  ════════════════════════════════ -->

  <!-- Admin → pfSense-OP -->
  <path d="M 350 166 C 350 205 423 210 423 228"
        stroke="#0891b2" stroke-width="1.5" stroke-dasharray="4,2" fill="none" marker-end="url(#at)"/>

  <!-- Admin (cloud) → pfSense-Cloud -->
  <path d="M 530 166 C 530 200 960 208 960 228"
        stroke="#0891b2" stroke-width="1.5" stroke-dasharray="4,2" fill="none" marker-end="url(#at)"/>

  <!-- Client VPN → pfSense-Cloud :1195 -->
  <path d="M 942 166 C 942 200 1185 208 1185 228"
        stroke="#6366f1" stroke-width="2" stroke-dasharray="6,3" fill="none" marker-end="url(#ai)"/>

  <!-- Labels flèches -->
  <rect x="268" y="184" width="140" height="13" rx="3" fill="#f0f9ff" stroke="#7dd3fc" stroke-width="0.5"/>
  <text x="338" y="194" text-anchor="middle" font-size="8" fill="#0369a1">SSH PVE1 :22 → ProxyJump</text>
  <rect x="590" y="184" width="165" height="13" rx="3" fill="#f0f9ff" stroke="#7dd3fc" stroke-width="0.5"/>
  <text x="672" y="194" text-anchor="middle" font-size="8" fill="#0369a1">SSH PVE2 :22 → ProxyJump → bastion</text>
  <rect x="986" y="184" width="180" height="13" rx="3" fill="#eef2ff" stroke="#a5b4fc" stroke-width="0.5"/>
  <text x="1076" y="194" text-anchor="middle" font-size="8.5" fill="#4338ca" font-weight="600">OpenVPN nomade UDP/:1195</text>

  <!-- ════════════════════════════════
       SITE 1 — ON-PREM (PVE1)
  ════════════════════════════════ -->
  <rect x="8" y="180" width="660" height="635" rx="12" fill="#fdf6e8" stroke="#d97706" stroke-width="2"/>
  <rect x="8" y="180" width="660" height="40" rx="12" fill="#d97706"/>
  <rect x="8" y="206" width="660" height="14" fill="#d97706"/>
  <text x="338" y="198" text-anchor="middle" font-size="12.5" font-weight="bold" fill="white">SITE 1 — ON-PREM  (PVE1 · 51.75.128.134)</text>
  <text x="338" y="212" text-anchor="middle" font-size="9" fill="#fef3c7">Infrastructure interne · pas d'accès WAN direct · ProxyJump root@51.75.128.134</text>

  <!-- pfSense-OP card -->
  <rect x="192" y="228" width="462" height="196" rx="8" fill="#1e293b" stroke="#334155" stroke-width="1.5"/>
  <rect x="192" y="228" width="6" height="196" rx="3" fill="#f97316"/>
  <text x="211" y="250" font-size="12" font-weight="bold" fill="white">🛡 pfSense-OP</text>
  <text x="211" y="266" font-size="9.5" fill="#64748b">Client VPN (ovpnc1) · Firewall · NAT · Gateway LAN</text>
  <line x1="202" y1="272" x2="646" y2="272" stroke="#2d3f50" stroke-width="1"/>
  <text x="211" y="287" font-size="9.5" fill="#94a3b8">WAN</text>
  <text x="260" y="287" font-size="9.5" fill="#cbd5e1">transit vmbr2 → PVE1 · 51.75.128.134</text>
  <text x="211" y="302" font-size="9.5" fill="#94a3b8">LAN</text>
  <text x="260" y="302" font-size="9.5" fill="#cbd5e1">172.16.0.254/28  (gateway VMs)  ·  Tunnel: 10.3.3.2</text>
  <text x="211" y="317" font-size="9.5" fill="#94a3b8">Remote</text>
  <text x="260" y="317" font-size="9.5" fill="#cbd5e1">routes reçues via VPN: 192.168.255.240/28 · 10.255.255.248/29</text>
  <text x="211" y="332" font-size="9.5" fill="#94a3b8">GUI</text>
  <text x="260" y="332" font-size="9.5" fill="#cbd5e1">https://172.16.0.254  ·  LAN uniquement</text>
  <line x1="202" y1="338" x2="646" y2="338" stroke="#2d3f50" stroke-width="1"/>
  <text x="211" y="351" font-size="9" font-weight="bold" fill="#f97316">Règles Firewall</text>
  <text x="211" y="365" font-size="9" fill="#6b7280">LAN</text>
  <text x="240" y="365" font-size="9" fill="#86efac">✓ Allow LAN → WAN  (any/any)</text>
  <text x="211" y="378" font-size="9" fill="#6b7280">WAN</text>
  <text x="240" y="378" font-size="9" fill="#86efac">✓ Allow SSH :22  ·  ✓ Allow HTTPS :443</text>
  <text x="211" y="391" font-size="9" fill="#6b7280">OpenVPN</text>
  <text x="255" y="391" font-size="9" fill="#86efac">✓ Allow inter-sites (any ↔ any)</text>
  <text x="211" y="404" font-size="9" fill="#6b7280">WAN</text>
  <text x="240" y="404" font-size="9" fill="#fca5a5">✗ Block OpenVPN entrant :1194  (client uniquement)</text>
  <text x="211" y="417" font-size="9" fill="#6b7280">DNS</text>
  <text x="240" y="417" font-size="9" fill="#86efac">✓ Forwarder → pfSense-Cloud LAN · 1.1.1.1 · 8.8.8.8</text>

  <!-- LAN On-Prem zone -->
  <rect x="192" y="435" width="462" height="368" rx="8" fill="#eff6ff" stroke="#93c5fd" stroke-width="1.5"/>
  <text x="423" y="454" text-anchor="middle" font-size="11" font-weight="bold" fill="#1d4ed8">LAN On-Prem — 172.16.0.240/28  ·  GW 172.16.0.254</text>

  <!-- ops-vm -->
  <rect x="202" y="464" width="222" height="298" rx="8" fill="white" stroke="#e2e8f0" stroke-width="1.5"/>
  <rect x="202" y="464" width="6" height="298" rx="3" fill="#16a34a"/>
  <text x="221" y="483" font-size="11.5" font-weight="bold" fill="#14532d">🖥 ops-vm</text>
  <text x="416" y="483" text-anchor="end" font-size="10" fill="#6b7280">172.16.0.241</text>
  <line x1="210" y1="490" x2="416" y2="490" stroke="#f1f5f9" stroke-width="1"/>
  <rect x="210" y="497" width="198" height="46" rx="5" fill="#eff6ff" stroke="#bfdbfe" stroke-width="1"/>
  <text x="309" y="515" text-anchor="middle" font-size="10" font-weight="bold" fill="#1e3a8a">🔍 Elasticsearch</text>
  <text x="309" y="530" text-anchor="middle" font-size="9" fill="#1e3a8a">:9200 HTTPS  ·  CA interne</text>
  <text x="309" y="541" text-anchor="middle" font-size="8.5" fill="#6b7280">target: bastion · web · local</text>
  <rect x="210" y="550" width="198" height="38" rx="5" fill="#f5f3ff" stroke="#ddd6fe" stroke-width="1"/>
  <text x="309" y="567" text-anchor="middle" font-size="10" font-weight="bold" fill="#5b21b6">🔐 Vault</text>
  <text x="309" y="580" text-anchor="middle" font-size="9" fill="#5b21b6">:8200 HTTPS  ·  secrets ELK + Teleport</text>
  <rect x="210" y="595" width="198" height="38" rx="5" fill="#eff6ff" stroke="#bfdbfe" stroke-width="1"/>
  <text x="309" y="612" text-anchor="middle" font-size="10" font-weight="bold" fill="#1e3a8a">📊 Kibana</text>
  <text x="309" y="625" text-anchor="middle" font-size="9" fill="#1e3a8a">:5601 HTTPS  ·  → ES local</text>
  <rect x="210" y="640" width="96" height="36" rx="5" fill="#f0fdf4" stroke="#bbf7d0" stroke-width="1"/>
  <text x="258" y="656" text-anchor="middle" font-size="9.5" font-weight="bold" fill="#166534">📦 Filebeat</text>
  <text x="258" y="669" text-anchor="middle" font-size="9" fill="#166534">→ ES local</text>
  <rect x="312" y="640" width="96" height="36" rx="5" fill="#faf5ff" stroke="#e9d5ff" stroke-width="1"/>
  <text x="360" y="656" text-anchor="middle" font-size="9.5" font-weight="bold" fill="#6d28d9">🔑 Teleport</text>
  <text x="360" y="669" text-anchor="middle" font-size="9" fill="#6d28d9">node · :3022</text>
  <line x1="210" y1="682" x2="416" y2="682" stroke="#f1f5f9" stroke-width="1"/>
  <text x="221" y="695" font-size="8.5" fill="#9ca3af">Syslog pfSense :5014  ·  Disk 87%</text>
  <text x="221" y="707" font-size="8.5" fill="#9ca3af">SSH: ProxyJump root@51.75.128.134</text>
  <text x="221" y="720" font-size="8.5" fill="#9ca3af">Vault: elastic-pass · kibana-pass · fleet-token</text>
  <text x="221" y="732" font-size="8.5" fill="#9ca3af">ubuntu@172.16.0.241  ·  CA interne: /etc/ssl/internal/</text>
  <text x="221" y="747" font-size="8.5" fill="#9ca3af">🔗 reçoit syslog pfSense-OP :5014</text>

  <!-- services-vm -->
  <rect x="434" y="464" width="210" height="220" rx="8" fill="white" stroke="#e2e8f0" stroke-width="1.5"/>
  <rect x="434" y="464" width="6" height="220" rx="3" fill="#0d9488"/>
  <text x="452" y="483" font-size="11.5" font-weight="bold" fill="#134e4a">🖥 services-vm</text>
  <text x="636" y="483" text-anchor="end" font-size="10" fill="#6b7280">172.16.0.242</text>
  <line x1="442" y1="490" x2="636" y2="490" stroke="#f1f5f9" stroke-width="1"/>
  <rect x="442" y="497" width="186" height="50" rx="5" fill="#f0fdfa" stroke="#99f6e4" stroke-width="1"/>
  <text x="535" y="516" text-anchor="middle" font-size="10" font-weight="bold" fill="#0f766e">📦 Netbox</text>
  <text x="535" y="530" text-anchor="middle" font-size="9" fill="#0f766e">IPAM · Source of truth</text>
  <text x="535" y="542" text-anchor="middle" font-size="8.5" fill="#6b7280">:80 · LAN uniquement</text>
  <rect x="442" y="554" width="186" height="36" rx="5" fill="#faf5ff" stroke="#e9d5ff" stroke-width="1"/>
  <text x="535" y="571" text-anchor="middle" font-size="10" font-weight="bold" fill="#6d28d9">🔑 Teleport</text>
  <text x="535" y="584" text-anchor="middle" font-size="9" fill="#6d28d9">node · :3022  →  proxy bastion</text>
  <line x1="442" y1="596" x2="636" y2="596" stroke="#f1f5f9" stroke-width="1"/>
  <text x="452" y="609" font-size="8.5" fill="#9ca3af">SSH: ProxyJump root@51.75.128.134</text>
  <text x="452" y="621" font-size="8.5" fill="#9ca3af">CA interne · ubuntu@172.16.0.242</text>
  <text x="452" y="633" font-size="8.5" fill="#9ca3af">teleport join-token ← Vault :8200</text>
  <text x="452" y="645" font-size="8.5" fill="#9ca3af">Connexion Teleport → proxy bastion</text>
  <text x="452" y="657" font-size="8.5" fill="#9ca3af">10.255.255.249  ·  via VPN tunnel</text>

  <!-- Ansible note -->
  <rect x="202" y="770" width="462" height="24" rx="5" fill="#fff7ed" stroke="#fed7aa" stroke-width="1"/>
  <text x="433" y="786" text-anchor="middle" font-size="9" fill="#92400e">Ansible: cd ansible/  ·  pfsensible.core · community.docker  ·  ProxyJump root@51.75.128.134 → ubuntu@172.16.0.x</text>

  <!-- ════════════════════════════════
       ZONE VPN INTER-SITES
  ════════════════════════════════ -->
  <rect x="672" y="280" width="130" height="82" rx="8" fill="#fff7ed" stroke="#ea580c" stroke-width="1.5"/>
  <text x="737" y="302" text-anchor="middle" font-size="10" font-weight="bold" fill="#c2410c">🔗 OpenVPN S2S</text>
  <text x="737" y="316" text-anchor="middle" font-size="9" fill="#c2410c">UDP/1194 · p2p shared-key</text>
  <text x="737" y="329" text-anchor="middle" font-size="9" fill="#c2410c">Tunnel: 10.3.3.0/30</text>
  <text x="737" y="342" text-anchor="middle" font-size="9" fill="#c2410c">OP=10.3.3.2  Cloud=10.3.3.1</text>
  <line x1="672" y1="321" x2="668" y2="321" stroke="#ea580c" stroke-width="2" stroke-dasharray="5,3" marker-end="url(#av)"/>
  <line x1="802" y1="321" x2="810" y2="321" stroke="#ea580c" stroke-width="2" stroke-dasharray="5,3" marker-end="url(#av)"/>

  <!-- Flow labels in gap -->
  <text x="737" y="388" text-anchor="middle" font-size="8.5" fill="#c2410c">← Filebeat bastion/web → ES</text>
  <text x="737" y="402" text-anchor="middle" font-size="8.5" fill="#7c3aed">→ Teleport nodes → proxy</text>
  <text x="737" y="416" text-anchor="middle" font-size="8" fill="#94a3b8">tout passe par le tunnel VPN</text>

  <!-- Cross-site flow arrows -->
  <line x1="810" y1="560" x2="668" y2="560" stroke="#c2410c" stroke-width="1.5" stroke-dasharray="6,3" marker-end="url(#ao)"/>
  <line x1="810" y1="578" x2="668" y2="578" stroke="#16a34a" stroke-width="1.5" stroke-dasharray="5,3" marker-end="url(#ag)"/>
  <line x1="668" y1="620" x2="810" y2="620" stroke="#7c3aed" stroke-width="1.5" stroke-dasharray="3,2" marker-end="url(#ap)"/>

  <!-- ════════════════════════════════
       SITE 2 — CLOUD (PVE2)
  ════════════════════════════════ -->
  <rect x="810" y="180" width="590" height="635" rx="12" fill="#eff6ff" stroke="#1d4ed8" stroke-width="2"/>
  <rect x="810" y="180" width="590" height="40" rx="12" fill="#1d4ed8"/>
  <rect x="810" y="206" width="590" height="14" fill="#1d4ed8"/>
  <text x="1105" y="198" text-anchor="middle" font-size="12.5" font-weight="bold" fill="white">SITE 2 — CLOUD  (PVE2 · 192.99.62.116)</text>
  <text x="1105" y="212" text-anchor="middle" font-size="9" fill="#bfdbfe">Sécurité · Accès · Observabilité · seul site exposé WAN direct</text>

  <!-- pfSense-Cloud card -->
  <rect x="824" y="228" width="562" height="228" rx="8" fill="#1e293b" stroke="#334155" stroke-width="1.5"/>
  <rect x="824" y="228" width="6" height="228" rx="3" fill="#3b82f6"/>
  <text x="843" y="250" font-size="12" font-weight="bold" fill="white">🛡 pfSense-Cloud</text>
  <text x="843" y="266" font-size="9.5" fill="#64748b">VPN hub (ovpns1) · Firewall · NAT · DNAT Teleport · SSH :2222</text>
  <line x1="834" y1="272" x2="1378" y2="272" stroke="#2d3f50" stroke-width="1"/>
  <text x="843" y="287" font-size="9.5" fill="#94a3b8">WAN</text>
  <text x="893" y="287" font-size="9.5" fill="#cbd5e1">transit vmbr5 → PVE2 · 192.99.62.116  ·  SSH root@192.99.62.116 :2222</text>
  <text x="843" y="302" font-size="9.5" fill="#94a3b8">LAN/vmbr4</text>
  <text x="908" y="302" font-size="9.5" fill="#cbd5e1">192.168.255.254/28</text>
  <text x="843" y="317" font-size="9.5" fill="#94a3b8">DMZ/vmbr3</text>
  <text x="908" y="317" font-size="9.5" fill="#cbd5e1">10.255.255.254/29  (OPT1 · vtnet2)  ·  Tunnel: 10.3.3.1</text>
  <text x="843" y="332" font-size="9.5" fill="#94a3b8">DNAT</text>
  <text x="893" y="332" font-size="9.5" fill="#cbd5e1">:3080 → bastion:443 (Teleport)  ·  GUI: https://192.99.62.116</text>
  <line x1="834" y1="338" x2="1378" y2="338" stroke="#2d3f50" stroke-width="1"/>
  <text x="843" y="351" font-size="9" font-weight="bold" fill="#3b82f6">Règles Firewall</text>
  <text x="843" y="365" font-size="9" fill="#6b7280">WAN</text>
  <text x="873" y="365" font-size="9" fill="#86efac">✓ Allow SSH :22  ·  ✓ Allow HTTPS :443  ·  ✓ OpenVPN S2S UDP/:1194  ·  ✓ OpenVPN nomade UDP/:1195</text>
  <text x="843" y="379" font-size="9" fill="#6b7280">LAN</text>
  <text x="873" y="379" font-size="9" fill="#86efac">✓ Allow LAN → ANY</text>
  <text x="843" y="393" font-size="9" fill="#6b7280">OPT1</text>
  <text x="873" y="393" font-size="9" fill="#86efac">✓ Allow Teleport → LAN Cloud :3022  ·  </text>
  <text x="1033" y="393" font-size="9" fill="#fca5a5">✗ Block DMZ → LAN Cloud</text>
  <text x="843" y="407" font-size="9" fill="#6b7280">OPT1</text>
  <text x="873" y="407" font-size="9" fill="#86efac">✓ Allow DMZ → LAN OP 172.16.0.240/28 (via VPN)  ·  ✓ Allow DMZ → Internet</text>
  <text x="843" y="421" font-size="9" fill="#6b7280">OPT1</text>
  <text x="873" y="421" font-size="9" fill="#fca5a5">✗ Delete default allow DMZ → any</text>
  <text x="843" y="435" font-size="9" fill="#6b7280">DNAT</text>
  <text x="873" y="435" font-size="9" fill="#86efac">✓ WAN :3080 → bastion:443</text>
  <text x="843" y="449" font-size="9" fill="#6b7280">DNS</text>
  <text x="873" y="449" font-size="9" fill="#86efac">✓ Domain forwarder op.local → 172.16.0.254</text>

  <!-- VLAN DMZ zone -->
  <rect x="824" y="466" width="295" height="340" rx="8" fill="#fffbeb" stroke="#f59e0b" stroke-width="1.5"/>
  <text x="971" y="486" text-anchor="middle" font-size="11" font-weight="bold" fill="#b45309">VLAN DMZ</text>
  <text x="971" y="500" text-anchor="middle" font-size="9.5" fill="#d97706">10.255.255.248/29  ·  GW 10.255.255.254</text>

  <!-- bastion card -->
  <rect x="834" y="510" width="275" height="220" rx="8" fill="white" stroke="#e2e8f0" stroke-width="1.5"/>
  <rect x="834" y="510" width="6" height="220" rx="3" fill="#f59e0b"/>
  <text x="852" y="530" font-size="11.5" font-weight="bold" fill="#1e293b">🖥 bastion</text>
  <text x="1102" y="530" text-anchor="end" font-size="10" fill="#6b7280">10.255.255.249</text>
  <line x1="842" y1="537" x2="1102" y2="537" stroke="#f1f5f9" stroke-width="1"/>
  <rect x="842" y="545" width="259" height="38" rx="5" fill="#f0fdf4" stroke="#bbf7d0" stroke-width="1"/>
  <text x="971" y="562" text-anchor="middle" font-size="10" font-weight="bold" fill="#166534">📦 Filebeat</text>
  <text x="971" y="575" text-anchor="middle" font-size="9" fill="#166534">→ ES ops-vm :9200  ·  via VPN</text>
  <rect x="842" y="590" width="259" height="52" rx="5" fill="#faf5ff" stroke="#e9d5ff" stroke-width="1"/>
  <text x="971" y="607" text-anchor="middle" font-size="10" font-weight="bold" fill="#6d28d9">🔑 Teleport proxy</text>
  <text x="971" y="622" text-anchor="middle" font-size="9" fill="#6d28d9">:443  ·  DNAT ← 192.99.62.116:3080</text>
  <text x="971" y="635" text-anchor="middle" font-size="8.5" fill="#9ca3af">point d'entrée SSH sécurisé</text>
  <line x1="842" y1="648" x2="1102" y2="648" stroke="#f1f5f9" stroke-width="1"/>
  <text x="852" y="662" font-size="8.5" fill="#9ca3af">SSH: ProxyJump root@192.99.62.116</text>
  <text x="852" y="675" font-size="8.5" fill="#9ca3af">CA interne · Disk 73% · ubuntu@10.255.255.249</text>
  <text x="852" y="688" font-size="8.5" fill="#9ca3af">Block DMZ→LAN Cloud (sauf Teleport :3022)</text>
  <text x="852" y="701" font-size="8.5" fill="#9ca3af">Allow DMZ→LAN-OP via VPN ✓  ·  Allow DMZ→Internet ✓</text>
  <text x="852" y="714" font-size="8.5" fill="#9ca3af">Connexion admin: PVE2 ProxyJump → bastion</text>

  <!-- VLAN LAN Cloud zone -->
  <rect x="1130" y="466" width="262" height="340" rx="8" fill="#f0fdf4" stroke="#4ade80" stroke-width="1.5"/>
  <text x="1261" y="486" text-anchor="middle" font-size="11" font-weight="bold" fill="#15803d">LAN Cloud</text>
  <text x="1261" y="500" text-anchor="middle" font-size="9.5" fill="#16a34a">192.168.255.240/28  ·  GW 192.168.255.254</text>

  <!-- web-vm card -->
  <rect x="1140" y="510" width="242" height="188" rx="8" fill="white" stroke="#e2e8f0" stroke-width="1.5"/>
  <rect x="1140" y="510" width="6" height="188" rx="3" fill="#4ade80"/>
  <text x="1158" y="530" font-size="11.5" font-weight="bold" fill="#14532d">🌍 web-vm</text>
  <text x="1374" y="530" text-anchor="end" font-size="10" fill="#6b7280">192.168.255.243</text>
  <line x1="1148" y1="537" x2="1374" y2="537" stroke="#f1f5f9" stroke-width="1"/>
  <rect x="1148" y="545" width="226" height="46" rx="5" fill="#f0fdf4" stroke="#bbf7d0" stroke-width="1"/>
  <text x="1261" y="563" text-anchor="middle" font-size="10" font-weight="bold" fill="#166534">🌐 Site web</text>
  <text x="1261" y="577" text-anchor="middle" font-size="9" fill="#166534">nginx · :80/:443  ·  LAN uniquement</text>
  <text x="1261" y="589" text-anchor="middle" font-size="8.5" fill="#6b7280">Docker non installé</text>
  <rect x="1148" y="597" width="226" height="36" rx="5" fill="#f0fdf4" stroke="#bbf7d0" stroke-width="1"/>
  <text x="1261" y="614" text-anchor="middle" font-size="10" font-weight="bold" fill="#166534">📦 Filebeat</text>
  <text x="1261" y="627" text-anchor="middle" font-size="9" fill="#166534">→ ES ops-vm :9200  ·  via VPN</text>
  <line x1="1148" y1="639" x2="1374" y2="639" stroke="#f1f5f9" stroke-width="1"/>
  <text x="1158" y="652" font-size="8.5" fill="#9ca3af">SSH: ProxyJump root@192.99.62.116</text>
  <text x="1158" y="665" font-size="8.5" fill="#9ca3af">Disk 63% libre · ubuntu@192.168.255.243</text>
  <text x="1158" y="678" font-size="8.5" fill="#9ca3af">Firewall: Allow LAN → ANY ✓</text>
  <text x="1158" y="691" font-size="8.5" fill="#9ca3af">CA interne · /etc/ssl/internal/</text>

  <!-- VPN nomade note -->
  <rect x="1140" y="708" width="242" height="52" rx="6" fill="#f0f9ff" stroke="#bae6fd" stroke-width="1"/>
  <text x="1261" y="725" text-anchor="middle" font-size="9" font-weight="bold" fill="#0369a1">🔒 VPN Nomade</text>
  <text x="1261" y="739" text-anchor="middle" font-size="9" fill="#0369a1">openvpn-nomade  ·  UDP/:1195</text>
  <text x="1261" y="753" text-anchor="middle" font-size="8.5" fill="#0369a1">Auth TLS + user · accès Cloud infra</text>

  <!-- ════════════════════════════════
       BAS — SSH tunnels · PKI · Légende
  ════════════════════════════════ -->
  <rect x="8" y="830" width="380" height="90" rx="10" fill="#f0fdfa" stroke="#0d9488" stroke-width="1.5"/>
  <text x="22" y="848" font-size="10.5" font-weight="bold" fill="#0f766e">🔒 Accès opérateur (SSH tunnels)</text>
  <text x="22" y="864" font-size="9" font-weight="bold" fill="#0f766e">ES + Vault + Kibana (PVE1):</text>
  <text x="22" y="877" font-size="9" font-family="monospace" fill="#0f766e">ssh -L 9200:172.16.0.241:9200 -L 8200:172.16.0.241:8200 -L 5601:172.16.0.241:5601 \</text>
  <text x="22" y="889" font-size="9" font-family="monospace" fill="#0f766e">  -J root@51.75.128.134 ubuntu@172.16.0.241</text>
  <text x="22" y="903" font-size="9" font-weight="bold" fill="#0f766e">Bastion Teleport (PVE2):</text>
  <text x="22" y="915" font-size="9" font-family="monospace" fill="#0f766e">ssh -J root@192.99.62.116 ubuntu@10.255.255.249</text>

  <rect x="402" y="830" width="330" height="90" rx="10" fill="#f5f3ff" stroke="#7c3aed" stroke-width="1.5"/>
  <text x="567" y="848" text-anchor="middle" font-size="10.5" font-weight="bold" fill="#4c1d95">🔑 PKI — CA Interne DGSI</text>
  <text x="567" y="865" text-anchor="middle" font-size="9.5" fill="#5b21b6">~/.ansible-tls/ca.crt  (controller Ansible, hors repo)</text>
  <text x="567" y="881" text-anchor="middle" font-size="9.5" fill="#5b21b6">Signe: Elasticsearch · Vault · Kibana · Filebeat · Teleport</text>
  <text x="567" y="897" text-anchor="middle" font-size="9.5" fill="#5b21b6">Déployé: /etc/ssl/internal/ sur chaque VM</text>
  <text x="567" y="913" text-anchor="middle" font-size="9.5" fill="#5b21b6">Secrets: elastic-pass · kibana-pass · fleet-token · teleport join-token</text>

  <rect x="746" y="830" width="655" height="90" rx="10" fill="white" stroke="#e2e8f0" stroke-width="1.5"/>
  <text x="1073" y="848" text-anchor="middle" font-size="10.5" font-weight="bold" fill="#334155">Légende</text>
  <rect x="758" y="860" width="12" height="10" rx="2" fill="#fdf6e8" stroke="#d97706" stroke-width="1.5"/>
  <text x="776" y="869" font-size="9" fill="#334155">Site On-Prem</text>
  <rect x="758" y="878" width="12" height="10" rx="2" fill="#eff6ff" stroke="#1d4ed8" stroke-width="1.5"/>
  <text x="776" y="887" font-size="9" fill="#334155">Site Cloud</text>
  <rect x="758" y="896" width="12" height="10" rx="2" fill="#fffbeb" stroke="#f59e0b" stroke-width="1.5"/>
  <text x="776" y="905" font-size="9" fill="#334155">Zone DMZ</text>
  <rect x="758" y="914" width="12" height="10" rx="2" fill="#f0fdf4" stroke="#4ade80" stroke-width="1.5"/>
  <text x="776" y="923" font-size="9" fill="#334155">LAN Cloud</text>
  <line x1="880" y1="864" x2="906" y2="864" stroke="#ea580c" stroke-width="2" stroke-dasharray="5,3" marker-end="url(#av)"/>
  <text x="912" y="868" font-size="9" fill="#334155">OpenVPN S2S (UDP/1194)</text>
  <line x1="880" y1="882" x2="906" y2="882" stroke="#6366f1" stroke-width="1.5" stroke-dasharray="5,3" marker-end="url(#ai)"/>
  <text x="912" y="886" font-size="9" fill="#334155">Client VPN nomade (UDP/1195)</text>
  <line x1="880" y1="900" x2="906" y2="900" stroke="#c2410c" stroke-width="1.5" stroke-dasharray="5,3" marker-end="url(#ao)"/>
  <text x="912" y="904" font-size="9" fill="#334155">Filebeat → Elasticsearch</text>
  <line x1="880" y1="918" x2="906" y2="918" stroke="#7c3aed" stroke-width="1.5" stroke-dasharray="3,2" marker-end="url(#ap)"/>
  <text x="912" y="922" font-size="9" fill="#334155">Teleport nodes → proxy</text>
  <line x1="1090" y1="864" x2="1116" y2="864" stroke="#0891b2" stroke-width="1.5" stroke-dasharray="4,2" marker-end="url(#at)"/>
  <text x="1122" y="868" font-size="9" fill="#334155">Admin SSH (ProxyJump PVE)</text>
  <line x1="1090" y1="882" x2="1116" y2="882" stroke="#16a34a" stroke-width="1.5" stroke-dasharray="5,3" marker-end="url(#ag)"/>
  <text x="1122" y="886" font-size="9" fill="#334155">Filebeat web → ES (via VPN)</text>

  <text x="1400" y="932" text-anchor="end" font-size="9" fill="#94a3b8">DGSI Epitech — 2026-06-24</text>
</svg>
